<svg xmlns="http://www.w3.org/2000/svg" width="360" height="360" viewBox="0 0 360 360">
  <defs>
    <pattern id="damask" width="180" height="180" patternUnits="userSpaceOnUse">
      <rect width="180" height="180" fill="#273248" />

      <g fill="none" stroke="#7f90aa" stroke-width="1.35" stroke-opacity="0.22">
        <path d="M90 18 C112 18 128 34 128 56 C128 78 112 95 90 116 C68 95 52 78 52 56 C52 34 68 18 90 18 Z" />
        <path d="M90 76 C110 76 124 92 124 112 C124 131 110 146 90 164 C70 146 56 131 56 112 C56 92 70 76 90 76 Z" />

        <path d="M44 58 C58 58 68 70 68 84 C68 98 58 109 44 124 C30 109 20 98 20 84 C20 70 30 58 44 58 Z" />
        <path d="M136 58 C150 58 160 70 160 84 C160 98 150 109 136 124 C122 109 112 98 112 84 C112 70 122 58 136 58 Z" />

        <path d="M90 8 C118 8 138 28 138 56" />
        <path d="M90 8 C62 8 42 28 42 56" />
        <path d="M90 172 C118 172 138 152 138 124" />
        <path d="M90 172 C62 172 42 152 42 124" />

        <path d="M8 90 C8 62 28 42 56 42" />
        <path d="M172 90 C172 62 152 42 124 42" />
        <path d="M8 90 C8 118 28 138 56 138" />
        <path d="M172 90 C172 118 152 138 124 138" />
      </g>

      <g fill="#9badc6" fill-opacity="0.12">
        <circle cx="90" cy="12" r="3" />
        <circle cx="90" cy="168" r="3" />
        <circle cx="12" cy="90" r="3" />
        <circle cx="168" cy="90" r="3" />
        <circle cx="90" cy="90" r="2.2" />
      </g>
    </pattern>

    <linearGradient id="vignette" x1="0" y1="0" x2="0" y2="1">
      <stop offset="0%" stop-color="rgba(10,14,22,0.00)" />
      <stop offset="100%" stop-color="rgba(9,13,20,0.34)" />
    </linearGradient>
  </defs>

  <rect width="360" height="360" fill="url(#damask)" />
  <rect width="360" height="360" fill="url(#vignette)" />
</svg>
